<?xml version="1.0" encoding="UTF-8" standalone="no"?>
<svg
   xmlns:dc="http://purl.org/dc/elements/1.1/"
   xmlns:cc="http://creativecommons.org/ns#"
   xmlns:rdf="http://www.w3.org/1999/02/22-rdf-syntax-ns#"
   xmlns:svg="http://www.w3.org/2000/svg"
   xmlns="http://www.w3.org/2000/svg"
   xmlns:sodipodi="http://sodipodi.sourceforge.net/DTD/sodipodi-0.dtd"
   xmlns:inkscape="http://www.inkscape.org/namespaces/inkscape"
   version="1.1"
   id="svg2"
   xml:space="preserve"
   width="1135.9067"
   height="793.70667"
   viewBox="0 0 1135.9067 793.70667"
   sodipodi:docname="Flag 03.ai"><metadata
     id="metadata8"><rdf:RDF><cc:Work
         rdf:about=""><dc:format>image/svg+xml</dc:format><dc:type
           rdf:resource="http://purl.org/dc/dcmitype/StillImage" /></cc:Work></rdf:RDF></metadata><defs
     id="defs6"><clipPath
       clipPathUnits="userSpaceOnUse"
       id="clipPath1092"><path
         id="path1090" /></clipPath></defs><sodipodi:namedview
     pagecolor="#ffffff"
     bordercolor="#666666"
     borderopacity="1"
     objecttolerance="10"
     gridtolerance="10"
     guidetolerance="10"
     inkscape:pageopacity="0"
     inkscape:pageshadow="2"
     inkscape:window-width="640"
     inkscape:window-height="480"
     id="namedview4" /><g
     id="g10"
     inkscape:groupmode="layer"
     inkscape:label="Flag 03"
     transform="matrix(1.3333333,0,0,-1.3333333,0,793.70667)"><path
       d="M 0,0 H 851.93 V 595.281 H 0 Z"
       style="fill:#c1edfe;fill-opacity:0;fill-rule:nonzero;stroke:none"
       id="path12" /><g
       id="g14"><g
         id="g16"
         clip-path="url(#clipPath20)"><g
           id="g634"
           transform="translate(177.7979,9.2168)"><path
             d="m 0,0 h 10.268 l -19.326,30.881 4.245,0.004 -15.738,25.085 10.142,0.01 -12.338,19.668 6.141,0.007 -11.567,18.44 6.92,0.008 -8.226,13.112 5.126,0.006 -19.276,55.295 -19.433,-55.088 5.176,-0.1 -8.268,-12.984 6.988,-0.138 -11.626,-18.261 6.221,-0.12 -12.407,-19.488 7.789,-0.15 -15.832,-24.871 7.985,-0.154 -19.447,-30.473 8.819,-0.18 -19.876,-31.06 40.19,-0.821 h 87.035 z"
             style="fill:#008d87;fill-opacity:1;fill-rule:nonzero;stroke:none"
             id="path636" /></g><g
           id="g638"
           transform="translate(134.1143,171.5762)"><path
             d="m 0,0 v 0 l -19.378,-54.932 5.176,-0.099 -8.269,-12.985 6.989,-0.137 -11.626,-18.261 6.22,-0.12 -12.406,-19.488 7.788,-0.151 -15.832,-24.87 7.985,-0.154 -19.447,-30.473 8.82,-0.181 -19.876,-31.059 31.166,31.99 z"
             style="fill:#1ac1b5;fill-opacity:1;fill-rule:nonzero;stroke:none"
             id="path640" /></g><g
           id="g642"
           transform="translate(197.4824,-22.1553)"><path
             d="m 0,0 -19.685,31.372 h 10.268 l -19.325,30.881 4.244,0.004 -15.737,25.085 10.141,0.011 -12.338,19.668 6.141,0.006 -11.566,18.44 6.919,0.008 -8.226,13.112 5.127,0.006 -19.276,55.295 -0.055,-0.157 L -51.767,19.688 -127.225,0.821 -87.034,0 Z"
             style="fill:#025773;fill-opacity:1;fill-rule:nonzero;stroke:none"
             id="path644" /></g><g
           id="g646"
           transform="translate(136.1797,-78.2197)"><path
             d="m 0,0 c 0,-1.358 -1.103,-2.459 -2.462,-2.459 -1.357,0 -2.459,1.101 -2.459,2.459 v 150.094 c 0,1.358 1.102,2.462 2.459,2.462 1.359,0 2.462,-1.104 2.462,-2.462 z"
             style="fill:#1e2a4f;fill-opacity:1;fill-rule:nonzero;stroke:none"
             id="path648" /></g><g
           id="g650"
           transform="translate(137.2588,3.04)"><path
             d="m 0,0 c -0.96,-0.96 -2.519,-0.96 -3.479,0.002 -0.96,0.96 -0.96,2.517 0,3.477 l 19.772,19.776 c 0.962,0.957 2.519,0.957 3.481,0 0.96,-0.962 0.96,-2.52 0,-3.482 z"
             style="fill:#1e2a4f;fill-opacity:1;fill-rule:nonzero;stroke:none"
             id="path652" /></g><g
           id="g654"
           transform="translate(133.2461,34.4072)"><path
             d="m 0,0 c 0.961,-0.96 0.961,-2.519 0,-3.481 -0.961,-0.959 -2.519,-0.959 -3.48,0 l -19.774,19.774 c -0.96,0.962 -0.96,2.519 0,3.481 0.962,0.959 2.519,0.959 3.481,0 z"
             style="fill:#1e2a4f;fill-opacity:1;fill-rule:nonzero;stroke:none"
             id="path656" /></g><g
           id="g658"
           transform="translate(131.5684,93.498)"><path
             d="m 0,0 c 0,-1.698 -1.378,-3.075 -3.076,-3.075 -1.697,0 -3.075,1.377 -3.075,3.075 0,1.699 1.378,3.076 3.075,3.076 C -1.378,3.076 0,1.699 0,0"
             style="fill:#025773;fill-opacity:1;fill-rule:nonzero;stroke:none"
             id="path660" /></g><g
           id="g662"
           transform="translate(114.1895,34.4424)"><path
             d="m 0,0 c 0,-1.486 -1.204,-2.691 -2.69,-2.691 -1.488,0 -2.692,1.205 -2.692,2.691 0,1.486 1.204,2.691 2.692,2.691 C -1.204,2.691 0,1.486 0,0"
             style="fill:#025773;fill-opacity:1;fill-rule:nonzero;stroke:none"
             id="path664" /></g><g
           id="g666"
           transform="translate(124.4688,63.7637)"><path
             d="m 0,0 c 0,-2.76 -2.239,-4.998 -4.999,-4.998 -2.76,0 -4.997,2.238 -4.997,4.998 0,2.763 2.237,4.999 4.997,4.999 C -2.239,4.999 0,2.763 0,0"
             style="fill:#025773;fill-opacity:1;fill-rule:nonzero;stroke:none"
             id="path668" /></g><g
           id="g670"><g
             id="g672" /><g
             id="g684"><g
               clip-path="url(#clipPath676)"
               opacity="0.5"
               id="g682"><g
                 transform="translate(197.4824,-22.1553)"
                 id="g680"><path
                   d="m 0,0 -19.685,31.372 h 10.268 l -19.325,30.881 4.244,0.004 -15.737,25.085 10.141,0.011 -12.338,19.668 6.141,0.006 -11.566,18.44 6.919,0.008 -8.226,13.112 5.127,0.006 -19.276,55.295 -19.433,-55.088 5.176,-0.1 -8.269,-12.984 6.988,-0.138 -11.626,-18.261 6.221,-0.12 -12.406,-19.488 7.788,-0.15 -15.832,-24.871 7.985,-0.154 -19.447,-30.472 8.819,-0.181 L -127.225,0.821 -87.034,0 h 20.81 v -56.064 c 0,-1.359 1.102,-2.459 2.459,-2.459 1.36,0 2.462,1.1 2.462,2.459 l 0,56.064 z"
                   style="fill:#025773;fill-opacity:1;fill-rule:nonzero;stroke:none"
                   id="path678" /></g></g></g></g><g
           id="g686"
           transform="translate(72.2207,50.1914)"><path
             d="m 0,0 h 14.69 l -27.648,44.182 6.072,0.006 -22.513,35.886 14.508,0.016 -17.651,28.136 8.786,0.009 -16.548,26.381 9.9,0.011 -11.77,18.76 7.336,0.008 -27.578,79.106 -27.8,-78.81 7.403,-0.142 -11.828,-18.578 9.995,-0.194 -16.63,-26.127 8.899,-0.171 -17.748,-27.878 11.142,-0.217 -22.652,-35.581 11.424,-0.221 -27.82,-43.594 12.615,-0.258 -28.435,-44.436 57.499,-1.175 H 28.163 Z"
             style="fill:#008d87;fill-opacity:1;fill-rule:nonzero;stroke:none"
             id="path688" /></g><g
           id="g690"
           transform="translate(9.7256,282.4687)"><path
             d="m 0,0 v 0 l -27.721,-78.586 7.403,-0.143 -11.828,-18.578 9.996,-0.193 -16.631,-26.127 8.899,-0.172 -17.748,-27.878 11.142,-0.217 -22.652,-35.581 11.424,-0.22 -27.82,-43.594 12.615,-0.258 -28.434,-44.436 44.588,45.767 z"
             style="fill:#1ac1b5;fill-opacity:1;fill-rule:nonzero;stroke:none"
             id="path692" /></g><g
           id="g694"
           transform="translate(100.3838,5.3105)"><path
             d="m 0,0 -28.163,44.881 h 14.69 l -27.648,44.182 6.072,0.006 -22.514,35.886 14.509,0.016 -17.651,28.135 8.786,0.01 -16.548,26.381 9.9,0.011 -11.77,18.76 7.336,0.007 -27.578,79.107 -0.079,-0.224 L -74.059,28.168 -182.014,1.175 -124.515,0 Z"
             style="fill:#025773;fill-opacity:1;fill-rule:nonzero;stroke:none"
             id="path696" /></g><g
           id="g698"
           transform="translate(12.6807,-74.8975)"><path
             d="m 0,0 c 0,-1.94 -1.577,-3.517 -3.521,-3.517 -1.944,0 -3.518,1.577 -3.518,3.517 v 214.73 c 0,1.945 1.574,3.52 3.518,3.52 1.944,0 3.521,-1.575 3.521,-3.52 z"
             style="fill:#1e2a4f;fill-opacity:1;fill-rule:nonzero;stroke:none"
             id="path700" /></g><g
           id="g702"
           transform="translate(14.2256,41.3555)"><path
             d="m 0,0 c -1.374,-1.373 -3.604,-1.373 -4.979,0.003 -1.375,1.373 -1.375,3.602 0,4.976 L 23.31,33.268 c 1.375,1.373 3.603,1.373 4.978,0 1.374,-1.373 1.374,-3.603 0,-4.979 z"
             style="fill:#1e2a4f;fill-opacity:1;fill-rule:nonzero;stroke:none"
             id="path704" /></g><g
           id="g706"
           transform="translate(8.4844,86.2324)"><path
             d="m 0,0 c 1.374,-1.374 1.374,-3.604 0,-4.979 -1.375,-1.375 -3.604,-1.375 -4.979,0 l -28.289,28.29 c -1.375,1.374 -1.375,3.602 0,4.977 1.376,1.374 3.604,1.374 4.98,0 z"
             style="fill:#1e2a4f;fill-opacity:1;fill-rule:nonzero;stroke:none"
             id="path708" /></g><g
           id="g710"
           transform="translate(6.084,170.7695)"><path
             d="m 0,0 c 0,-2.432 -1.972,-4.4 -4.4,-4.4 -2.429,0 -4.401,1.968 -4.401,4.4 0,2.429 1.972,4.4 4.401,4.4 C -1.972,4.4 0,2.429 0,0"
             style="fill:#025773;fill-opacity:1;fill-rule:nonzero;stroke:none"
             id="path712" /></g><g
           id="g714"
           transform="translate(12.2891,22.7607)"><path
             d="m 0,0 h 11.399 l -21.456,34.287 4.712,0.004 -17.47,27.851 11.258,0.011 -13.698,21.835 6.818,0.008 -12.841,20.472 7.682,0.01 -9.133,14.558 5.693,0.006 -21.403,61.39 -21.573,-61.161 5.744,-0.11 -9.177,-14.416 7.756,-0.15 -12.907,-20.277 6.907,-0.132 -13.774,-21.637 8.647,-0.167 -17.579,-27.613 8.866,-0.17 -21.591,-33.831 9.791,-0.202 -22.067,-34.483 44.623,-0.912 h 96.628 z"
             style="fill:#008d87;fill-opacity:1;fill-rule:nonzero;stroke:none"
             id="path716" /></g><g
           id="g718"
           transform="translate(34.1445,-12.0684)"><path
             d="m 0,0 -21.855,34.829 h 11.399 l -21.456,34.287 4.712,0.004 -17.471,27.851 11.259,0.011 -13.698,21.835 6.818,0.008 -12.842,20.472 7.683,0.01 -9.133,14.558 5.692,0.006 -21.403,61.39 -0.06,-0.174 L -57.473,21.857 -141.251,0.912 -96.629,0 Z"
             style="fill:#025773;fill-opacity:1;fill-rule:nonzero;stroke:none"
             id="path720" /></g><g
           id="g722"
           transform="translate(112.4961,22.7607)"><path
             d="m 0,0 h 11.4 l -21.456,34.287 4.712,0.004 -17.47,27.851 11.257,0.011 -13.697,21.835 6.818,0.008 -12.841,20.472 7.681,0.01 -9.133,14.558 5.694,0.006 -21.403,61.39 -21.574,-61.161 5.744,-0.11 -9.177,-14.416 7.756,-0.15 -12.906,-20.277 6.906,-0.132 -13.773,-21.637 8.647,-0.167 -17.579,-27.613 8.866,-0.17 -21.591,-33.831 9.79,-0.202 -22.067,-34.483 44.623,-0.912 h 96.628 z"
             style="fill:#008d87;fill-opacity:1;fill-rule:nonzero;stroke:none"
             id="path724" /></g><g
           id="g726"
           transform="translate(63.9971,203.0186)"><path
             d="m 0,0 v 0 l -21.513,-60.986 5.744,-0.111 -9.177,-14.416 7.756,-0.15 -12.906,-20.276 6.906,-0.133 -13.773,-21.637 8.647,-0.167 -17.579,-27.613 8.866,-0.17 -21.591,-33.831 9.79,-0.201 -22.066,-34.484 34.603,35.516 z"
             style="fill:#1ac1b5;fill-opacity:1;fill-rule:nonzero;stroke:none"
             id="path728" /></g><g
           id="g730"
           transform="translate(134.3516,-12.0684)"><path
             d="m 0,0 -21.855,34.829 h 11.4 l -21.456,34.287 4.712,0.004 -17.471,27.851 11.258,0.011 -13.697,21.835 6.818,0.008 -12.842,20.472 7.682,0.01 -9.133,14.558 5.693,0.006 -21.403,61.39 -0.06,-0.174 L -57.473,21.857 -141.251,0.912 -96.629,0 Z"
             style="fill:#025773;fill-opacity:1;fill-rule:nonzero;stroke:none"
             id="path732" /></g><g
           id="g734"
           transform="translate(66.29,-74.3145)"><path
             d="m 0,0 c 0,-1.506 -1.224,-2.729 -2.732,-2.729 -1.508,0 -2.731,1.223 -2.731,2.729 v 166.642 c 0,1.508 1.223,2.731 2.731,2.731 1.508,0 2.732,-1.223 2.732,-2.731 z"
             style="fill:#1e2a4f;fill-opacity:1;fill-rule:nonzero;stroke:none"
             id="path736" /></g><g
           id="g738"
           transform="translate(67.4893,15.9023)"><path
             d="m 0,0 c -1.066,-1.063 -2.797,-1.063 -3.864,0.002 -1.066,1.068 -1.066,2.796 0,3.864 l 21.953,21.952 c 1.067,1.067 2.797,1.067 3.864,0 1.067,-1.065 1.067,-2.795 0,-3.863 z"
             style="fill:#1e2a4f;fill-opacity:1;fill-rule:nonzero;stroke:none"
             id="path740" /></g><g
           id="g742"
           transform="translate(63.0332,50.7285)"><path
             d="m 0,0 c 1.066,-1.065 1.066,-2.795 0,-3.863 -1.066,-1.067 -2.795,-1.067 -3.863,0 l -21.954,21.955 c -1.066,1.065 -1.066,2.795 0,3.863 1.068,1.066 2.796,1.066 3.865,0 z"
             style="fill:#1e2a4f;fill-opacity:1;fill-rule:nonzero;stroke:none"
             id="path744" /></g><g
           id="g746"
           transform="translate(61.1709,116.334)"><path
             d="m 0,0 c 0,-1.885 -1.53,-3.414 -3.415,-3.414 -1.885,0 -3.415,1.529 -3.415,3.414 0,1.887 1.53,3.416 3.415,3.416 C -1.53,3.416 0,1.887 0,0"
             style="fill:#025773;fill-opacity:1;fill-rule:nonzero;stroke:none"
             id="path748" /></g><g
           id="g750"
           transform="translate(41.876,50.7686)"><path
             d="m 0,0 c 0,-1.649 -1.337,-2.987 -2.986,-2.987 -1.652,0 -2.989,1.338 -2.989,2.987 0,1.65 1.337,2.988 2.989,2.988 C -1.337,2.988 0,1.65 0,0"
             style="fill:#025773;fill-opacity:1;fill-rule:nonzero;stroke:none"
             id="path752" /></g><g
           id="g754"
           transform="translate(53.2891,83.3242)"><path
             d="m 0,0 c 0,-3.064 -2.485,-5.549 -5.551,-5.549 -3.064,0 -5.548,2.485 -5.548,5.549 0,3.064 2.484,5.549 5.548,5.549 C -2.485,5.549 0,3.064 0,0"
             style="fill:#025773;fill-opacity:1;fill-rule:nonzero;stroke:none"
             id="path756" /></g><g
           id="g758"
           transform="translate(101.416,-77.6846)"><path
             d="m 0,0 h 12.422 l -23.383,37.363 5.135,0.005 -19.037,30.35 12.268,0.013 -14.926,23.795 7.43,0.006 -13.994,22.311 8.369,0.01 -9.951,15.865 6.203,0.005 -23.323,66.9 -23.51,-66.648 6.261,-0.121 -10.002,-15.712 8.451,-0.163 -14.062,-22.097 7.526,-0.144 -15.009,-23.576 9.422,-0.183 -19.155,-30.089 9.659,-0.188 -23.527,-36.866 10.67,-0.219 -24.047,-37.58 48.624,-0.993 h 105.3 z"
             style="fill:#31bd8e;fill-opacity:1;fill-rule:nonzero;stroke:none"
             id="path760" /></g><g
           id="g762"
           transform="translate(48.5645,118.75)"><path
             d="m 0,0 v 0 l -23.445,-66.46 6.26,-0.121 -10.002,-15.712 8.452,-0.163 -14.063,-22.097 7.527,-0.143 -15.009,-23.576 9.422,-0.184 -19.156,-30.089 9.66,-0.187 -23.528,-36.867 10.67,-0.218 -24.047,-37.58 37.708,38.706 z"
             style="fill:#46dba6;fill-opacity:1;fill-rule:nonzero;stroke:none"
             id="path764" /></g><g
           id="g766"
           transform="translate(125.2305,-115.6406)"><path
             d="m 0,0 -23.814,37.956 h 12.421 l -23.382,37.363 5.134,0.005 -19.037,30.35 12.269,0.014 -14.927,23.794 7.431,0.006 -13.994,22.311 8.369,0.01 -9.951,15.865 6.203,0.005 -23.324,66.9 -0.064,-0.188 L -62.629,23.822 -153.925,0.993 -105.301,0 Z"
             style="fill:#22936a;fill-opacity:1;fill-rule:nonzero;stroke:none"
             id="path768" /></g><g
           id="g770"
           transform="translate(51.0625,-183.4707)"><path
             d="m 0,0 c 0,-1.641 -1.334,-2.975 -2.978,-2.975 -1.644,0 -2.975,1.334 -2.975,2.975 v 181.594 c 0,1.643 1.331,2.976 2.975,2.976 1.644,0 2.978,-1.333 2.978,-2.976 z"
             style="fill:#1e2a4f;fill-opacity:1;fill-rule:nonzero;stroke:none"
             id="path772" /></g><g
           id="g774"
           transform="translate(45.4844,24.2871)"><path
             d="m 0,0 c 0,-2.055 -1.669,-3.723 -3.721,-3.723 -2.057,0 -3.723,1.668 -3.723,3.723 0,2.055 1.666,3.722 3.723,3.722 C -1.669,3.722 0,2.055 0,0"
             style="fill:#46dba6;fill-opacity:1;fill-rule:nonzero;stroke:none"
             id="path776" /></g><g
           id="g778"
           transform="translate(890.7622,44.6572)"><path
             d="m 0,0 h 14.326 l -26.963,43.086 5.922,0.008 -21.955,34.994 14.149,0.016 -17.213,27.439 8.568,0.009 -16.139,25.727 9.655,0.011 -11.477,18.294 7.154,0.008 -26.896,77.145 -27.11,-76.856 7.219,-0.139 -11.533,-18.117 9.746,-0.189 -16.219,-25.479 8.68,-0.167 -17.309,-27.187 10.866,-0.212 -22.09,-34.698 11.14,-0.216 -27.13,-42.512 12.304,-0.254 -27.73,-43.334 56.074,-1.143 H 27.465 Z"
             style="fill:#008d87;fill-opacity:1;fill-rule:nonzero;stroke:none"
             id="path780" /></g><g
           id="g782"
           transform="translate(829.8169,271.1768)"><path
             d="m 0,0 v 0 l -27.033,-76.639 7.219,-0.138 -11.534,-18.118 9.746,-0.189 -16.218,-25.479 8.679,-0.166 -17.308,-27.188 10.865,-0.212 -22.09,-34.697 11.141,-0.217 -27.131,-42.512 12.305,-0.254 -27.731,-43.334 43.483,44.633 z"
             style="fill:#1ac1b5;fill-opacity:1;fill-rule:nonzero;stroke:none"
             id="path784" /></g><g
           id="g786"
           transform="translate(918.2271,0.8916)"><path
             d="m 0,0 -27.465,43.766 h 14.326 l -26.963,43.086 5.922,0.007 -21.955,34.995 14.149,0.016 -17.213,27.439 8.568,0.008 -16.139,25.728 9.655,0.011 -11.477,18.294 7.154,0.007 -26.896,77.146 -0.076,-0.218 L -72.223,27.466 -177.5,1.143 -121.426,0 Z"
             style="fill:#025773;fill-opacity:1;fill-rule:nonzero;stroke:none"
             id="path788" /></g><g
           id="g790"
           transform="translate(832.6997,-77.3311)"><path
             d="m 0,0 c 0,-1.891 -1.539,-3.429 -3.434,-3.429 -1.896,0 -3.431,1.538 -3.431,3.429 v 209.408 c 0,1.896 1.535,3.432 3.431,3.432 1.895,0 3.434,-1.536 3.434,-3.432 z"
             style="fill:#1e2a4f;fill-opacity:1;fill-rule:nonzero;stroke:none"
             id="path792" /></g><g
           id="g794"
           transform="translate(834.2056,36.04)"><path
             d="m 0,0 c -1.34,-1.34 -3.516,-1.34 -4.855,0.003 -1.34,1.341 -1.34,3.514 0,4.852 l 27.585,27.59 c 1.342,1.337 3.516,1.337 4.858,0 1.338,-1.341 1.338,-3.514 0,-4.855 z"
             style="fill:#1e2a4f;fill-opacity:1;fill-rule:nonzero;stroke:none"
             id="path796" /></g><g
           id="g798"
           transform="translate(828.606,79.8037)"><path
             d="m 0,0 c 1.34,-1.34 1.34,-3.514 0,-4.855 -1.34,-1.34 -3.514,-1.34 -4.855,0 l -27.588,27.587 c -1.34,1.342 -1.34,3.514 0,4.856 1.341,1.34 3.515,1.34 4.857,0 z"
             style="fill:#1e2a4f;fill-opacity:1;fill-rule:nonzero;stroke:none"
             id="path800" /></g><g
           id="g802"
           transform="translate(826.2661,162.2451)"><path
             d="m 0,0 c 0,-2.37 -1.924,-4.29 -4.293,-4.29 -2.367,0 -4.289,1.92 -4.289,4.29 0,2.37 1.922,4.293 4.289,4.293 C -1.924,4.293 0,2.37 0,0"
             style="fill:#025773;fill-opacity:1;fill-rule:nonzero;stroke:none"
             id="path804" /></g><g
           id="g806"
           transform="translate(802.02,79.8535)"><path
             d="m 0,0 c 0,-2.074 -1.68,-3.757 -3.756,-3.757 -2.074,0 -3.754,1.683 -3.754,3.757 0,2.073 1.68,3.755 3.754,3.755 C -1.68,3.755 0,2.073 0,0"
             style="fill:#025773;fill-opacity:1;fill-rule:nonzero;stroke:none"
             id="path808" /></g><g
           id="g810"
           transform="translate(816.3618,120.7627)"><path
             d="m 0,0 c 0,-3.851 -3.125,-6.973 -6.975,-6.973 -3.853,0 -6.972,3.122 -6.972,6.973 0,3.852 3.119,6.975 6.972,6.975 C -3.125,6.975 0,3.852 0,0"
             style="fill:#025773;fill-opacity:1;fill-rule:nonzero;stroke:none"
             id="path812" /></g><g
           id="g814"><g
             id="g816" /><g
             id="g828"><g
               clip-path="url(#clipPath820)"
               opacity="0.5"
               id="g826"><g
                 transform="translate(918.2271,0.8916)"
                 id="g824"><path
                   d="m 0,0 -27.465,43.766 h 14.326 l -26.963,43.086 5.922,0.007 -21.955,34.995 14.149,0.016 -17.213,27.439 8.568,0.008 -16.139,25.728 9.655,0.011 -11.477,18.294 7.154,0.007 -26.896,77.146 -27.109,-76.857 7.218,-0.138 -11.533,-18.117 9.746,-0.19 -16.218,-25.478 8.679,-0.167 -17.308,-27.188 10.865,-0.212 -22.09,-34.697 11.141,-0.217 L -162.074,44.73 -149.77,44.477 -177.5,1.143 -121.426,0 h 29.033 v -78.223 c 0,-1.89 1.536,-3.428 3.432,-3.428 1.895,0 3.434,1.538 3.434,3.428 V 0 Z"
                   style="fill:#025773;fill-opacity:1;fill-rule:nonzero;stroke:none"
                   id="path822" /></g></g></g></g><g
           id="g830"
           transform="translate(892.8013,-9.2402)"><path
             d="m 0,0 h 8.168 l -15.375,24.568 3.377,0.003 -12.52,19.957 8.069,0.009 -9.817,15.648 4.887,0.005 -9.203,14.67 5.506,0.006 -6.545,10.432 4.078,0.005 -15.336,43.992 -15.459,-43.827 4.117,-0.08 -6.578,-10.33 5.559,-0.109 -9.248,-14.528 4.947,-0.096 -9.869,-15.505 6.195,-0.12 -12.596,-19.785 6.354,-0.123 -15.471,-24.243 7.016,-0.145 -15.813,-24.71 31.975,-0.653 H 15.66 Z"
             style="fill:#008d87;fill-opacity:1;fill-rule:nonzero;stroke:none"
             id="path832" /></g><g
           id="g834"
           transform="translate(858.0474,119.9307)"><path
             d="m 0,0 v 0 l -15.416,-43.703 4.117,-0.08 -6.578,-10.33 5.559,-0.109 -9.248,-14.528 4.947,-0.096 -9.869,-15.505 6.195,-0.12 -12.596,-19.785 6.354,-0.123 -15.471,-24.243 7.016,-0.145 -15.813,-24.71 24.795,25.452 z"
             style="fill:#1ac1b5;fill-opacity:1;fill-rule:nonzero;stroke:none"
             id="path836" /></g><g
           id="g838"
           transform="translate(908.4614,-34.1992)"><path
             d="m 0,0 -15.66,24.959 h 8.168 l -15.375,24.568 3.377,0.003 -12.52,19.957 8.069,0.009 -9.817,15.648 4.887,0.005 -9.203,14.67 5.506,0.006 -6.545,10.432 4.078,0.005 -15.336,43.992 -0.043,-0.124 9.23,-138.467 L -101.217,0.653 -69.242,0 Z"
             style="fill:#025773;fill-opacity:1;fill-rule:nonzero;stroke:none"
             id="path840" /></g><g
           id="g842"
           transform="translate(857.356,10.8008)"><path
             d="m 0,0 c 0.766,-0.764 0.766,-2.004 0,-2.77 -0.764,-0.763 -2.002,-0.763 -2.768,0 L -18.5,12.962 c -0.764,0.766 -0.764,2.005 0,2.769 0.766,0.764 2.004,0.764 2.77,0 z"
             style="fill:#1e2a4f;fill-opacity:1;fill-rule:nonzero;stroke:none"
             id="path844" /></g><g
           id="g846"
           transform="translate(856.022,57.8125)"><path
             d="m 0,0 c 0,-1.351 -1.096,-2.446 -2.447,-2.446 -1.352,0 -2.448,1.095 -2.448,2.446 0,1.352 1.096,2.448 2.448,2.448 C -1.096,2.448 0,1.352 0,0"
             style="fill:#025773;fill-opacity:1;fill-rule:nonzero;stroke:none"
             id="path848" /></g><g
           id="g850"
           transform="translate(842.1958,10.8291)"><path
             d="m 0,0 c 0,-1.183 -0.959,-2.142 -2.141,-2.142 -1.183,0 -2.142,0.959 -2.142,2.142 0,1.182 0.959,2.141 2.142,2.141 C -0.959,2.141 0,1.182 0,0"
             style="fill:#025773;fill-opacity:1;fill-rule:nonzero;stroke:none"
             id="path852" /></g><g
           id="g854"
           transform="translate(850.3735,34.1572)"><path
             d="m 0,0 c 0,-2.196 -1.781,-3.977 -3.977,-3.977 -2.197,0 -3.976,1.781 -3.976,3.977 0,2.197 1.779,3.977 3.976,3.977 C -1.781,3.977 0,2.197 0,0"
             style="fill:#025773;fill-opacity:1;fill-rule:nonzero;stroke:none"
             id="path856" /></g><g
           id="g858"><g
             id="g860" /><g
             id="g872"><g
               clip-path="url(#clipPath864)"
               opacity="0.5"
               id="g870"><g
                 transform="translate(908.4614,-34.1992)"
                 id="g868"><path
                   d="m 0,0 -15.66,24.959 h 8.168 l -15.375,24.568 3.377,0.003 -12.52,19.957 8.069,0.009 -9.817,15.648 4.887,0.005 -9.203,14.67 5.506,0.006 -6.545,10.432 4.078,0.005 -15.336,43.992 -15.459,-43.827 4.117,-0.08 -6.578,-10.33 5.559,-0.109 -9.248,-14.528 4.947,-0.096 -9.869,-15.505 6.195,-0.12 -12.596,-19.785 6.354,-0.123 L -92.42,25.508 -85.404,25.363 -101.217,0.653 -69.242,0 h 16.556 v -44.604 c 0,-1.081 0.875,-1.957 1.957,-1.957 1.081,0 1.958,0.876 1.958,1.957 l 0,44.604 z"
                   style="fill:#025773;fill-opacity:1;fill-rule:nonzero;stroke:none"
                   id="path866" /></g></g></g></g><g
           id="g874"
           transform="translate(669.1255,-51.2949)"><path
             d="m 0,0 h 9.359 l -17.617,28.152 3.869,0.004 -14.343,22.866 9.244,0.011 -11.248,17.929 5.599,0.006 -10.545,16.809 6.309,0.007 -7.5,11.954 4.674,0.005 -17.572,50.406 -17.713,-50.216 4.714,-0.092 -7.537,-11.837 6.371,-0.124 -10.597,-16.648 5.67,-0.109 -11.309,-17.765 7.1,-0.138 -14.434,-22.672 7.279,-0.141 -17.728,-27.777 8.041,-0.166 -18.119,-28.314 36.637,-0.748 h 79.341 z"
             style="fill:#008d87;fill-opacity:1;fill-rule:nonzero;stroke:none"
             id="path876" /></g><g
           id="g878"
           transform="translate(629.3032,96.7119)"><path
             d="m 0,0 v 0 l -17.662,-50.074 4.715,-0.092 -7.537,-11.837 6.371,-0.124 -10.598,-16.647 5.67,-0.11 -11.309,-17.764 7.1,-0.139 -14.434,-22.672 7.28,-0.141 -17.729,-27.777 8.041,-0.166 -18.119,-28.313 28.412,29.162 z"
             style="fill:#1ac1b5;fill-opacity:1;fill-rule:nonzero;stroke:none"
             id="path880" /></g><g
           id="g882"
           transform="translate(687.0708,-79.8926)"><path
             d="m 0,0 -17.945,28.598 h 9.359 l -17.617,28.152 3.869,0.004 -14.344,22.866 9.244,0.011 -11.248,17.929 5.6,0.005 -10.545,16.81 6.309,0.007 -7.5,11.954 4.673,0.005 -17.572,50.406 -0.051,-0.143 L -47.189,17.947 -115.979,0.748 -79.342,0 Z"
             style="fill:#025773;fill-opacity:1;fill-rule:nonzero;stroke:none"
             id="path884" /></g><g
           id="g886"
           transform="translate(631.186,-131.002)"><path
             d="m 0,0 c 0,-1.237 -1.004,-2.241 -2.244,-2.241 -1.238,0 -2.24,1.004 -2.24,2.241 v 136.827 c 0,1.238 1.002,2.243 2.24,2.243 1.24,0 2.244,-1.005 2.244,-2.243 z"
             style="fill:#1e2a4f;fill-opacity:1;fill-rule:nonzero;stroke:none"
             id="path888" /></g><g
           id="g890"
           transform="translate(626.9829,25.5371)"><path
             d="m 0,0 c 0,-1.549 -1.256,-2.804 -2.805,-2.804 -1.547,0 -2.802,1.255 -2.802,2.804 0,1.548 1.255,2.805 2.802,2.805 C -1.256,2.805 0,1.548 0,0"
             style="fill:#025773;fill-opacity:1;fill-rule:nonzero;stroke:none"
             id="path892" /></g><g
           id="g894"
           transform="translate(620.5103,-1.5674)"><path
             d="m 0,0 c 0,-2.516 -2.041,-4.557 -4.557,-4.557 -2.515,0 -4.554,2.041 -4.554,4.557 0,2.517 2.039,4.556 4.554,4.556 C -2.041,4.556 0,2.517 0,0"
             style="fill:#025773;fill-opacity:1;fill-rule:nonzero;stroke:none"
             id="path896" /></g><g
           id="g898"
           transform="translate(808.8052,23.3584)"><path
             d="m 0,0 h 11.688 l -21.997,35.15 4.83,0.006 -17.91,28.55 11.543,0.012 -14.043,22.386 6.989,0.007 -13.164,20.988 7.875,0.008 -9.364,14.925 5.838,0.007 -21.941,62.936 -22.117,-62.701 5.888,-0.113 -9.41,-14.78 7.953,-0.154 -13.232,-20.787 7.08,-0.135 -14.119,-22.18 8.863,-0.173 -18.02,-28.307 9.088,-0.176 -22.134,-34.682 10.039,-0.206 -22.623,-35.352 45.744,-0.935 h 99.062 z"
             style="fill:#008d87;fill-opacity:1;fill-rule:nonzero;stroke:none"
             id="path900" /></g><g
           id="g902"
           transform="translate(759.0864,208.1553)"><path
             d="m 0,0 v 0 l -22.055,-62.522 5.889,-0.114 -9.41,-14.78 7.953,-0.154 -13.232,-20.786 7.08,-0.136 -14.12,-22.18 8.864,-0.173 -18.02,-28.307 9.088,-0.176 -22.135,-34.682 10.039,-0.206 -22.623,-35.352 35.475,36.412 z"
             style="fill:#1ac1b5;fill-opacity:1;fill-rule:nonzero;stroke:none"
             id="path904" /></g><g
           id="g906"
           transform="translate(831.2114,-12.3477)"><path
             d="m 0,0 -22.406,35.706 h 11.687 l -21.996,35.15 4.83,0.006 -17.91,28.55 11.543,0.012 -14.043,22.386 6.988,0.007 -13.164,20.988 7.875,0.008 -9.363,14.925 5.838,0.007 -21.942,62.936 -0.062,-0.178 L -58.92,22.409 -144.807,0.935 -99.063,0 Z"
             style="fill:#025773;fill-opacity:1;fill-rule:nonzero;stroke:none"
             id="path908" /></g><g
           id="g910"
           transform="translate(761.436,-76.1611)"><path
             d="M 0,0 C 0,-1.543 -1.254,-2.797 -2.801,-2.797 -4.348,-2.797 -5.6,-1.543 -5.6,0 v 170.837 c 0,1.547 1.252,2.8 2.799,2.8 1.547,0 2.801,-1.253 2.801,-2.8 z"
             style="fill:#1e2a4f;fill-opacity:1;fill-rule:nonzero;stroke:none"
             id="path912" /></g><g
           id="g914"
           transform="translate(762.6646,16.3291)"><path
             d="m 0,0 c -1.092,-1.093 -2.867,-1.093 -3.959,0.002 -1.094,1.093 -1.094,2.866 0,3.959 l 22.504,22.506 c 1.096,1.093 2.867,1.093 3.963,0 1.092,-1.093 1.092,-2.866 0,-3.961 z"
             style="fill:#1e2a4f;fill-opacity:1;fill-rule:nonzero;stroke:none"
             id="path916" /></g><g
           id="g918"
           transform="translate(758.0981,52.0322)"><path
             d="m 0,0 c 1.094,-1.093 1.094,-2.867 0,-3.961 -1.094,-1.094 -2.867,-1.094 -3.961,0 l -22.506,22.506 c -1.094,1.094 -1.094,2.866 0,3.961 1.094,1.093 2.867,1.093 3.961,0 z"
             style="fill:#1e2a4f;fill-opacity:1;fill-rule:nonzero;stroke:none"
             id="path920" /></g><g
           id="g922"
           transform="translate(756.188,119.2881)"><path
             d="m 0,0 c 0,-1.934 -1.568,-3.5 -3.5,-3.5 -1.934,0 -3.502,1.566 -3.502,3.5 0,1.934 1.568,3.502 3.502,3.502 C -1.568,3.502 0,1.934 0,0"
             style="fill:#025773;fill-opacity:1;fill-rule:nonzero;stroke:none"
             id="path924" /></g><g
           id="g926"
           transform="translate(736.4087,52.0723)"><path
             d="m 0,0 c 0,-1.692 -1.371,-3.065 -3.063,-3.065 -1.693,0 -3.064,1.373 -3.064,3.065 0,1.69 1.371,3.063 3.064,3.063 C -1.371,3.063 0,1.69 0,0"
             style="fill:#025773;fill-opacity:1;fill-rule:nonzero;stroke:none"
             id="path928" /></g><g
           id="g930"
           transform="translate(748.1079,85.4463)"><path
             d="m 0,0 c 0,-3.142 -2.549,-5.688 -5.689,-5.688 -3.143,0 -5.69,2.546 -5.69,5.688 0,3.142 2.547,5.689 5.69,5.689 C -2.549,5.689 0,3.142 0,0"
             style="fill:#025773;fill-opacity:1;fill-rule:nonzero;stroke:none"
             id="path932" /></g><g
           id="g934"
           transform="translate(761.1255,1.5352)"><path
             d="m 0,0 h 9.068 l -17.07,27.278 3.75,0.003 -13.9,22.157 8.957,0.01 -10.897,17.371 5.424,0.007 -10.217,16.287 6.112,0.007 -7.266,11.583 4.529,0.005 -17.027,48.841 -17.164,-48.658 4.57,-0.088 -7.303,-11.47 6.172,-0.119 -10.267,-16.132 5.494,-0.105 -10.959,-17.214 6.879,-0.133 -13.985,-21.969 7.053,-0.135 -17.176,-26.916 7.789,-0.16 -17.556,-27.434 35.5,-0.725 h 76.877 z"
             style="fill:#008d87;fill-opacity:1;fill-rule:nonzero;stroke:none"
             id="path936" /></g><g
           id="g938"
           transform="translate(722.5396,144.9463)"><path
             d="m 0,0 v 0 l -17.115,-48.521 4.57,-0.087 -7.303,-11.47 6.172,-0.119 -10.267,-16.132 5.494,-0.106 -10.959,-17.213 6.879,-0.133 -13.985,-21.969 7.053,-0.135 -17.176,-26.916 7.789,-0.16 -17.556,-27.435 27.529,28.257 z"
             style="fill:#1ac1b5;fill-opacity:1;fill-rule:nonzero;stroke:none"
             id="path940" /></g><g
           id="g942"
           transform="translate(778.5122,-26.1738)"><path
             d="m 0,0 -17.387,27.709 h 9.069 l -17.071,27.278 3.75,0.003 -13.9,22.157 8.957,0.01 -10.897,17.371 5.424,0.007 -10.216,16.287 6.111,0.007 -7.266,11.583 4.53,0.005 -17.028,48.841 -0.049,-0.138 L -45.725,17.39 -112.377,0.725 -76.877,0 Z"
             style="fill:#025773;fill-opacity:1;fill-rule:nonzero;stroke:none"
             id="path944" /></g><g
           id="g946"
           transform="translate(724.3638,-75.6963)"><path
             d="m 0,0 c 0,-1.198 -0.975,-2.171 -2.174,-2.171 -1.199,0 -2.172,0.973 -2.172,2.171 v 132.577 c 0,1.2 0.973,2.173 2.172,2.173 1.199,0 2.174,-0.973 2.174,-2.173 z"
             style="fill:#1e2a4f;fill-opacity:1;fill-rule:nonzero;stroke:none"
             id="path948" /></g><g
           id="g950"
           transform="translate(725.3169,-3.9209)"><path
             d="m 0,0 c -0.848,-0.847 -2.225,-0.847 -3.074,0.002 -0.848,0.85 -0.848,2.224 0,3.073 l 17.467,17.466 c 0.849,0.848 2.224,0.848 3.074,0 0.847,-0.849 0.847,-2.225 0,-3.074 z"
             style="fill:#1e2a4f;fill-opacity:1;fill-rule:nonzero;stroke:none"
             id="path952" /></g><g
           id="g954"
           transform="translate(721.772,23.7861)"><path
             d="m 0,0 c 0.85,-0.848 0.85,-2.225 0,-3.074 -0.848,-0.848 -2.223,-0.848 -3.072,0 l -17.467,17.467 c -0.848,0.848 -0.848,2.224 0,3.074 0.85,0.847 2.225,0.847 3.074,0 z"
             style="fill:#1e2a4f;fill-opacity:1;fill-rule:nonzero;stroke:none"
             id="path956" /></g><g
           id="g958"
           transform="translate(720.2915,75.9814)"><path
             d="m 0,0 c 0,-1.5 -1.217,-2.717 -2.717,-2.717 -1.5,0 -2.717,1.217 -2.717,2.717 0,1.5 1.217,2.717 2.717,2.717 C -1.217,2.717 0,1.5 0,0"
             style="fill:#025773;fill-opacity:1;fill-rule:nonzero;stroke:none"
             id="path960" /></g><g
           id="g962"
           transform="translate(704.9399,23.8174)"><path
             d="m 0,0 c 0,-1.312 -1.062,-2.377 -2.375,-2.377 -1.314,0 -2.379,1.065 -2.379,2.377 0,1.312 1.065,2.377 2.379,2.377 C -1.062,2.377 0,1.312 0,0"
             style="fill:#025773;fill-opacity:1;fill-rule:nonzero;stroke:none"
             id="path964" /></g><g
           id="g966"
           transform="translate(714.02,49.7178)"><path
             d="m 0,0 c 0,-2.438 -1.977,-4.414 -4.416,-4.414 -2.438,0 -4.414,1.976 -4.414,4.414 0,2.439 1.976,4.415 4.414,4.415 C -1.977,4.415 0,2.439 0,0"
             style="fill:#025773;fill-opacity:1;fill-rule:nonzero;stroke:none"
             id="path968" /></g><g
           id="g970"
           transform="translate(840.8481,1.5352)"><path
             d="M 0,0 H 9.07 L -8,27.278 l 3.748,0.003 -13.898,22.157 8.957,0.01 -10.899,17.371 5.424,0.007 -10.217,16.287 6.114,0.007 -7.268,11.583 4.529,0.005 -17.027,48.841 -17.164,-48.658 4.57,-0.088 -7.301,-11.47 6.17,-0.119 -10.267,-16.132 5.494,-0.105 -10.957,-17.214 6.879,-0.133 -13.985,-21.969 7.053,-0.135 -17.178,-26.916 7.789,-0.16 -17.554,-27.434 35.5,-0.725 h 76.877 z"
             style="fill:#008d87;fill-opacity:1;fill-rule:nonzero;stroke:none"
             id="path972" /></g><g
           id="g974"
           transform="translate(802.2622,144.9463)"><path
             d="m 0,0 v 0 l -17.115,-48.521 4.57,-0.087 -7.301,-11.47 6.17,-0.119 -10.267,-16.132 5.494,-0.106 -10.957,-17.213 6.879,-0.133 -13.985,-21.969 7.053,-0.135 -17.178,-26.916 7.789,-0.16 -17.554,-27.435 27.529,28.257 z"
             style="fill:#1ac1b5;fill-opacity:1;fill-rule:nonzero;stroke:none"
             id="path976" /></g><g
           id="g978"
           transform="translate(858.2368,-26.1738)"><path
             d="m 0,0 -17.389,27.709 h 9.071 l -17.071,27.278 3.748,0.003 -13.898,22.157 8.957,0.01 -10.898,17.371 5.423,0.007 -10.216,16.287 6.113,0.007 -7.268,11.583 4.53,0.005 -17.028,48.841 -0.049,-0.138 L -45.725,17.39 -112.377,0.725 -76.877,0 Z"
             style="fill:#025773;fill-opacity:1;fill-rule:nonzero;stroke:none"
             id="path980" /></g><g
           id="g982"
           transform="translate(804.0864,-75.6963)"><path
             d="m 0,0 c 0,-1.198 -0.973,-2.171 -2.174,-2.171 -1.199,0 -2.172,0.973 -2.172,2.171 v 132.577 c 0,1.2 0.973,2.173 2.172,2.173 1.201,0 2.174,-0.973 2.174,-2.173 z"
             style="fill:#1e2a4f;fill-opacity:1;fill-rule:nonzero;stroke:none"
             id="path984" /></g><g
           id="g986"
           transform="translate(805.0415,-3.9209)"><path
             d="m 0,0 c -0.848,-0.847 -2.225,-0.847 -3.074,0.002 -0.848,0.85 -0.848,2.224 0,3.073 l 17.465,17.466 c 0.849,0.848 2.226,0.848 3.074,0 0.849,-0.849 0.849,-2.225 0,-3.074 z"
             style="fill:#1e2a4f;fill-opacity:1;fill-rule:nonzero;stroke:none"
             id="path988" /></g><g
           id="g990"
           transform="translate(801.4966,23.7861)"><path
             d="m 0,0 c 0.848,-0.848 0.848,-2.225 0,-3.074 -0.85,-0.848 -2.225,-0.848 -3.074,0 l -17.465,17.467 c -0.85,0.848 -0.85,2.224 0,3.074 0.85,0.847 2.225,0.847 3.074,0 z"
             style="fill:#1e2a4f;fill-opacity:1;fill-rule:nonzero;stroke:none"
             id="path992" /></g><g
           id="g994"
           transform="translate(800.0142,75.9814)"><path
             d="m 0,0 c 0,-1.5 -1.217,-2.717 -2.717,-2.717 -1.5,0 -2.717,1.217 -2.717,2.717 0,1.5 1.217,2.717 2.717,2.717 C -1.217,2.717 0,1.5 0,0"
             style="fill:#025773;fill-opacity:1;fill-rule:nonzero;stroke:none"
             id="path996" /></g><g
           id="g998"
           transform="translate(784.6646,23.8174)"><path
             d="m 0,0 c 0,-1.312 -1.064,-2.377 -2.377,-2.377 -1.312,0 -2.377,1.065 -2.377,2.377 0,1.312 1.065,2.377 2.377,2.377 C -1.064,2.377 0,1.312 0,0"
             style="fill:#025773;fill-opacity:1;fill-rule:nonzero;stroke:none"
             id="path1000" /></g><g
           id="g1002"
           transform="translate(793.7446,49.7178)"><path
             d="m 0,0 c 0,-2.438 -1.979,-4.414 -4.418,-4.414 -2.437,0 -4.412,1.976 -4.412,4.414 0,2.439 1.975,4.415 4.412,4.415 C -1.979,4.415 0,2.439 0,0"
             style="fill:#025773;fill-opacity:1;fill-rule:nonzero;stroke:none"
             id="path1004" /></g><g
           id="g1006"
           transform="translate(832.0337,-78.3779)"><path
             d="m 0,0 h 9.883 l -18.604,29.726 4.084,0.003 -15.144,24.146 9.76,0.011 -11.875,18.93 5.912,0.006 -11.135,17.75 6.66,0.007 -7.918,12.623 4.936,0.003 -18.555,53.226 -18.705,-53.025 4.98,-0.096 -7.957,-12.5 6.725,-0.13 -11.19,-17.58 5.989,-0.114 -11.942,-18.757 7.496,-0.146 -15.24,-23.938 7.686,-0.15 -18.719,-29.33 8.49,-0.174 -19.133,-29.897 38.686,-0.791 h 83.775 z"
             style="fill:#31bd8e;fill-opacity:1;fill-rule:nonzero;stroke:none"
             id="path1008" /></g><g
           id="g1010"
           transform="translate(789.9849,77.9023)"><path
             d="m 0,0 v 0 l -18.652,-52.874 4.98,-0.097 -7.957,-12.5 6.725,-0.13 -11.19,-17.58 5.989,-0.113 -11.942,-18.758 7.496,-0.145 -15.24,-23.939 7.686,-0.149 -18.719,-29.33 8.49,-0.174 -19.133,-29.898 30,30.793 z"
             style="fill:#46dba6;fill-opacity:1;fill-rule:nonzero;stroke:none"
             id="path1012" /></g><g
           id="g1014"
           transform="translate(850.979,-108.5752)"><path
             d="m 0,0 -18.945,30.197 h 9.882 l -18.603,29.726 4.084,0.004 -15.145,24.145 9.76,0.011 -11.875,18.931 5.912,0.006 -11.134,17.75 6.66,0.006 -7.918,12.623 4.935,0.003 -18.554,53.226 -0.053,-0.15 L -49.826,18.952 -122.461,0.791 -83.775,0 Z"
             style="fill:#22936a;fill-opacity:1;fill-rule:nonzero;stroke:none"
             id="path1016" /></g><g
           id="g1018"
           transform="translate(787.5337,2.749)"><path
             d="m 0,0 c 0,-1.635 -1.326,-2.961 -2.959,-2.961 -1.637,0 -2.963,1.326 -2.963,2.961 0,1.635 1.326,2.961 2.963,2.961 C -1.326,2.961 0,1.635 0,0"
             style="fill:#46dba6;fill-opacity:1;fill-rule:nonzero;stroke:none"
             id="path1020" /></g><g
           id="g1022"
           transform="translate(183.6855,-21.2529)"><path
             d="m 0,0 h -14.326 l 26.963,43.086 -5.922,0.008 21.956,34.994 -14.15,0.016 17.213,27.439 -8.567,0.009 16.138,25.727 -9.655,0.011 11.478,18.294 -7.154,0.008 26.895,77.145 27.11,-76.856 -7.219,-0.139 11.534,-18.117 -9.747,-0.189 16.219,-25.479 -8.679,-0.167 17.309,-27.187 -10.867,-0.212 22.09,-34.698 -11.14,-0.216 27.13,-42.512 -12.303,-0.254 27.73,-43.334 -56.074,-1.143 H -27.465 Z"
             style="fill:#008d87;fill-opacity:1;fill-rule:nonzero;stroke:none"
             id="path1024" /></g><g
           id="g1026"
           transform="translate(244.6309,205.2666)"><path
             d="m 0,0 v 0 l 27.033,-76.639 -7.219,-0.138 11.535,-18.118 -9.747,-0.189 16.218,-25.479 -8.678,-0.166 17.308,-27.188 -10.866,-0.212 22.09,-34.697 -11.141,-0.217 27.131,-42.512 -12.304,-0.254 27.731,-43.334 -43.484,44.633 z"
             style="fill:#1ac1b5;fill-opacity:1;fill-rule:nonzero;stroke:none"
             id="path1028" /></g><g
           id="g1030"
           transform="translate(156.2207,-65.0186)"><path
             d="M 0,0 27.465,43.766 H 13.139 l 26.963,43.086 -5.922,0.007 21.956,34.995 -14.15,0.016 17.213,27.439 -8.567,0.008 16.138,25.728 -9.655,0.011 11.478,18.294 -7.155,0.007 26.896,77.146 0.076,-0.218 L 72.223,27.466 177.501,1.143 121.427,0 Z"
             style="fill:#025773;fill-opacity:1;fill-rule:nonzero;stroke:none"
             id="path1032" /></g><g
           id="g1034"
           transform="translate(241.749,-143.2412)"><path
             d="m 0,0 c 0,-1.891 1.538,-3.429 3.434,-3.429 1.895,0 3.431,1.538 3.431,3.429 v 209.408 c 0,1.896 -1.536,3.432 -3.431,3.432 C 1.538,212.84 0,211.304 0,209.408 Z"
             style="fill:#1e2a4f;fill-opacity:1;fill-rule:nonzero;stroke:none"
             id="path1036" /></g><g
           id="g1038"
           transform="translate(240.2432,-29.8701)"><path
             d="m 0,0 c 1.339,-1.34 3.515,-1.34 4.855,0.003 1.34,1.341 1.34,3.514 0,4.852 l -27.586,27.59 c -1.342,1.337 -3.515,1.337 -4.857,0 -1.339,-1.341 -1.339,-3.514 0,-4.855 z"
             style="fill:#1e2a4f;fill-opacity:1;fill-rule:nonzero;stroke:none"
             id="path1040" /></g><g
           id="g1042"
           transform="translate(245.8418,13.8936)"><path
             d="m 0,0 c -1.34,-1.34 -1.34,-3.514 0,-4.855 1.341,-1.34 3.514,-1.34 4.855,0 l 27.588,27.587 c 1.34,1.342 1.34,3.514 0,4.856 -1.341,1.34 -3.514,1.34 -4.856,0 z"
             style="fill:#1e2a4f;fill-opacity:1;fill-rule:nonzero;stroke:none"
             id="path1044" /></g><g
           id="g1046"
           transform="translate(248.1816,96.335)"><path
             d="m 0,0 c 0,-2.37 1.924,-4.29 4.293,-4.29 2.368,0 4.29,1.92 4.29,4.29 0,2.37 -1.922,4.293 -4.29,4.293 C 1.924,4.293 0,2.37 0,0"
             style="fill:#025773;fill-opacity:1;fill-rule:nonzero;stroke:none"
             id="path1048" /></g><g
           id="g1050"
           transform="translate(272.4287,13.9434)"><path
             d="m 0,0 c 0,-2.074 1.68,-3.757 3.755,-3.757 2.074,0 3.754,1.683 3.754,3.757 0,2.073 -1.68,3.755 -3.754,3.755 C 1.68,3.755 0,2.073 0,0"
             style="fill:#025773;fill-opacity:1;fill-rule:nonzero;stroke:none"
             id="path1052" /></g><g
           id="g1054"
           transform="translate(258.0869,54.8525)"><path
             d="m 0,0 c 0,-3.851 3.124,-6.973 6.975,-6.973 3.852,0 6.972,3.122 6.972,6.973 0,3.852 -3.12,6.975 -6.972,6.975 C 3.124,6.975 0,3.852 0,0"
             style="fill:#025773;fill-opacity:1;fill-rule:nonzero;stroke:none"
             id="path1056" /></g><g
           id="g1058"><g
             id="g1060" /><g
             id="g1072"><g
               clip-path="url(#clipPath1064)"
               opacity="0.5"
               id="g1070"><g
                 transform="translate(156.2207,-65.0186)"
                 id="g1068"><path
                   d="M 0,0 27.465,43.766 H 13.139 l 26.963,43.086 -5.922,0.007 21.956,34.995 -14.15,0.016 17.213,27.439 -8.567,0.008 16.138,25.728 -9.655,0.011 11.478,18.294 -7.155,0.007 26.896,77.146 27.109,-76.857 -7.218,-0.138 11.534,-18.117 -9.747,-0.19 16.218,-25.478 -8.678,-0.167 17.308,-27.188 -10.866,-0.212 22.09,-34.697 L 134.943,87.242 162.074,44.73 149.771,44.477 177.501,1.143 121.427,0 H 92.394 v -78.223 c 0,-1.89 -1.537,-3.428 -3.432,-3.428 -1.896,0 -3.434,1.538 -3.434,3.428 V 0 Z"
                   style="fill:#025773;fill-opacity:1;fill-rule:nonzero;stroke:none"
                   id="path1066" /></g></g></g></g><g
           id="g1074"
           transform="translate(181.6465,-75.1504)"><path
             d="m 0,0 h -8.168 l 15.375,24.568 -3.377,0.003 12.52,19.957 -8.069,0.009 9.817,15.648 -4.886,0.005 9.202,14.67 -5.506,0.006 6.546,10.432 -4.079,0.005 15.336,43.992 15.46,-43.827 -4.117,-0.08 6.578,-10.33 -5.56,-0.109 L 56.321,60.421 51.373,60.325 61.242,44.82 55.047,44.7 67.643,24.915 61.289,24.792 76.761,0.549 69.745,0.404 85.558,-24.306 53.583,-24.959 H -15.66 Z"
             style="fill:#008d87;fill-opacity:1;fill-rule:nonzero;stroke:none"
             id="path1076" /></g><g
           id="g1078"
           transform="translate(216.4014,54.0205)"><path
             d="m 0,0 v 0 l 15.416,-43.703 -4.117,-0.08 6.578,-10.33 -5.56,-0.109 9.249,-14.528 -4.948,-0.096 9.869,-15.505 -6.195,-0.12 12.596,-19.785 -6.354,-0.123 15.472,-24.243 -7.016,-0.145 15.813,-24.71 -24.795,25.452 z"
             style="fill:#1ac1b5;fill-opacity:1;fill-rule:nonzero;stroke:none"
             id="path1080" /></g><g
           id="g1082"
           transform="translate(165.9863,-100.1094)"><path
             d="M 0,0 15.66,24.959 H 7.492 l 15.375,24.568 -3.377,0.003 12.52,19.957 -8.069,0.009 9.817,15.648 -4.886,0.005 9.202,14.67 -5.506,0.006 6.546,10.432 -4.079,0.005 15.336,43.992 0.044,-0.124 L 41.185,15.663 101.218,0.653 69.243,0 Z"
             style="fill:#025773;fill-opacity:1;fill-rule:nonzero;stroke:none"
             id="path1084" /></g><g
           id="g1086"><g
             id="g1088" /><g
             id="g1100"><g
               clip-path="url(#clipPath1092)"
               opacity="0.5"
               id="g1098"><g
                 transform="translate(165.9863,-100.1094)"
                 id="g1096"><path
                   d="M 0,0 15.66,24.959 H 7.492 l 15.375,24.568 -3.377,0.003 12.52,19.957 -8.069,0.009 9.817,15.648 -4.886,0.005 9.202,14.67 -5.506,0.006 6.546,10.432 -4.079,0.005 15.336,43.992 15.46,-43.827 -4.117,-0.08 6.578,-10.33 -5.56,-0.109 L 71.981,85.38 67.033,85.284 76.902,69.779 70.707,69.659 83.303,49.874 76.949,49.751 92.421,25.508 85.405,25.363 101.218,0.653 69.243,0 H 52.687 v -44.604 c 0,-1.081 -0.876,-1.957 -1.958,-1.957 -1.081,0 -1.958,0.876 -1.958,1.957 V 0 Z"
                   style="fill:#025773;fill-opacity:1;fill-rule:nonzero;stroke:none"
                   id="path1094" /></g></g></g></g><g
           id="g1102"
           transform="translate(414.7217,-77.4414)"><path
             d="m 0,0 h -9.36 l 17.617,28.152 -3.869,0.004 14.344,22.866 -9.244,0.011 11.248,17.929 -5.6,0.006 10.545,16.809 -6.308,0.007 7.5,11.954 -4.674,0.005 17.572,50.406 L 57.484,97.933 52.769,97.841 60.306,86.004 53.935,85.88 64.533,69.232 58.863,69.123 70.171,51.358 63.072,51.22 77.505,28.548 70.226,28.407 87.955,0.63 79.914,0.464 98.033,-27.85 61.396,-28.598 h -79.341 z"
             style="fill:#008d87;fill-opacity:1;fill-rule:nonzero;stroke:none"
             id="path1104" /></g><g
           id="g1106"
           transform="translate(454.5435,70.5654)"><path
             d="m 0,0 v 0 l 17.662,-50.074 -4.715,-0.092 7.537,-11.837 -6.371,-0.124 10.598,-16.647 -5.67,-0.11 11.309,-17.764 -7.1,-0.139 14.434,-22.672 -7.28,-0.141 17.729,-27.777 -8.041,-0.166 18.119,-28.313 -28.412,29.162 z"
             style="fill:#1ac1b5;fill-opacity:1;fill-rule:nonzero;stroke:none"
             id="path1108" /></g><g
           id="g1110"
           transform="translate(396.7764,-106.0391)"><path
             d="m 0,0 17.945,28.598 h -9.36 l 17.617,28.152 -3.869,0.004 14.344,22.866 -9.243,0.011 11.247,17.929 -5.599,0.005 10.544,16.81 -6.308,0.007 7.5,11.954 -4.674,0.005 17.572,50.406 0.051,-0.143 L 47.189,17.947 115.978,0.748 79.341,0 Z"
             style="fill:#025773;fill-opacity:1;fill-rule:nonzero;stroke:none"
             id="path1112" /></g><g
           id="g1114"
           transform="translate(456.8638,-0.6094)"><path
             d="m 0,0 c 0,-1.549 1.256,-2.804 2.805,-2.804 1.547,0 2.802,1.255 2.802,2.804 0,1.548 -1.255,2.805 -2.802,2.805 C 1.256,2.805 0,1.548 0,0"
             style="fill:#025773;fill-opacity:1;fill-rule:nonzero;stroke:none"
             id="path1116" /></g><g
           id="g1118"
           transform="translate(265.6426,-42.5518)"><path
             d="m 0,0 h -11.688 l 21.997,35.15 -4.83,0.006 17.911,28.55 -11.543,0.012 14.043,22.386 -6.99,0.007 13.164,20.988 -7.875,0.008 9.364,14.925 -5.837,0.007 21.941,62.936 22.117,-62.701 -5.889,-0.113 9.41,-14.78 -7.952,-0.154 L 80.574,86.44 73.494,86.305 87.614,64.125 78.75,63.952 96.771,35.645 87.682,35.469 109.816,0.787 99.778,0.581 122.401,-34.771 76.656,-35.706 h -99.062 z"
             style="fill:#008d87;fill-opacity:1;fill-rule:nonzero;stroke:none"
             id="path1120" /></g><g
           id="g1122"
           transform="translate(315.3623,142.2451)"><path
             d="m 0,0 v 0 l 22.055,-62.522 -5.89,-0.114 9.41,-14.78 -7.952,-0.154 13.231,-20.786 -7.08,-0.136 14.121,-22.18 -8.865,-0.173 18.021,-28.307 -9.089,-0.176 22.135,-34.682 -10.038,-0.206 22.623,-35.352 -35.475,36.412 z"
             style="fill:#1ac1b5;fill-opacity:1;fill-rule:nonzero;stroke:none"
             id="path1124" /></g><g
           id="g1126"
           transform="translate(243.2363,-78.2578)"><path
             d="M 0,0 22.406,35.706 H 10.719 l 21.996,35.15 -4.83,0.006 17.911,28.55 -11.543,0.012 14.043,22.386 -6.989,0.007 13.164,20.988 -7.875,0.008 9.363,14.925 -5.837,0.007 21.941,62.936 0.063,-0.178 L 58.92,22.409 144.808,0.935 99.063,0 Z"
             style="fill:#025773;fill-opacity:1;fill-rule:nonzero;stroke:none"
             id="path1128" /></g><g
           id="g1130"
           transform="translate(313.0117,-142.0713)"><path
             d="M 0,0 C 0,-1.543 1.255,-2.797 2.801,-2.797 4.348,-2.797 5.6,-1.543 5.6,0 v 170.837 c 0,1.547 -1.252,2.8 -2.799,2.8 -1.546,0 -2.801,-1.253 -2.801,-2.8 z"
             style="fill:#1e2a4f;fill-opacity:1;fill-rule:nonzero;stroke:none"
             id="path1132" /></g><g
           id="g1134"
           transform="translate(316.3506,-13.8779)"><path
             d="m 0,0 c -1.094,-1.093 -1.094,-2.867 0,-3.961 1.094,-1.094 2.866,-1.094 3.961,0 l 22.506,22.506 c 1.094,1.094 1.094,2.866 0,3.961 -1.095,1.093 -2.867,1.093 -3.962,0 z"
             style="fill:#1e2a4f;fill-opacity:1;fill-rule:nonzero;stroke:none"
             id="path1136" /></g><g
           id="g1138"
           transform="translate(318.2598,53.3779)"><path
             d="m 0,0 c 0,-1.934 1.568,-3.5 3.501,-3.5 1.933,0 3.501,1.566 3.501,3.5 0,1.934 -1.568,3.502 -3.501,3.502 C 1.568,3.502 0,1.934 0,0"
             style="fill:#025773;fill-opacity:1;fill-rule:nonzero;stroke:none"
             id="path1140" /></g><g
           id="g1142"
           transform="translate(326.3398,19.5361)"><path
             d="m 0,0 c 0,-3.142 2.549,-5.688 5.69,-5.688 3.142,0 5.689,2.546 5.689,5.688 0,3.142 -2.547,5.689 -5.689,5.689 C 2.549,5.689 0,3.142 0,0"
             style="fill:#025773;fill-opacity:1;fill-rule:nonzero;stroke:none"
             id="path1144" /></g><g
           id="g1146"
           transform="translate(334.333,-53.8721)"><path
             d="m 0,0 h -9.069 l 17.07,27.278 -3.749,0.003 13.899,22.157 -8.957,0.01 10.898,17.371 -5.425,0.007 10.217,16.287 -6.112,0.007 7.266,11.583 -4.528,0.005 17.027,48.841 L 55.7,94.891 51.13,94.803 58.433,83.333 52.262,83.214 62.529,67.082 57.035,66.977 67.993,49.763 61.114,49.63 75.099,27.661 68.046,27.526 85.223,0.61 77.434,0.45 94.99,-26.984 59.489,-27.709 h -76.877 z"
             style="fill:#008d87;fill-opacity:1;fill-rule:nonzero;stroke:none"
             id="path1148" /></g><g
           id="g1150"
           transform="translate(372.9189,89.5391)"><path
             d="m 0,0 v 0 l 17.114,-48.521 -4.57,-0.087 7.303,-11.47 -6.171,-0.119 10.267,-16.132 -5.494,-0.106 10.958,-17.213 -6.879,-0.133 13.985,-21.969 -7.053,-0.135 17.177,-26.916 -7.789,-0.16 17.556,-27.435 -27.53,28.257 z"
             style="fill:#1ac1b5;fill-opacity:1;fill-rule:nonzero;stroke:none"
             id="path1152" /></g><g
           id="g1154"
           transform="translate(316.9453,-81.5811)"><path
             d="m 0,0 17.388,27.709 h -9.07 l 17.071,27.278 -3.749,0.003 13.899,22.157 -8.957,0.01 10.897,17.371 -5.424,0.007 10.216,16.287 -6.111,0.007 7.266,11.583 -4.529,0.005 17.028,48.841 0.049,-0.138 L 45.725,17.39 112.377,0.725 76.877,0 Z"
             style="fill:#025773;fill-opacity:1;fill-rule:nonzero;stroke:none"
             id="path1156" /></g><g
           id="g1158"
           transform="translate(371.0937,-131.1035)"><path
             d="m 0,0 c 0,-1.198 0.975,-2.171 2.174,-2.171 1.2,0 2.173,0.973 2.173,2.171 v 132.577 c 0,1.2 -0.973,2.173 -2.173,2.173 C 0.975,134.75 0,133.777 0,132.577 Z"
             style="fill:#1e2a4f;fill-opacity:1;fill-rule:nonzero;stroke:none"
             id="path1160" /></g><g
           id="g1162"
           transform="translate(375.166,20.5742)"><path
             d="M 0,0 C 0,-1.5 1.218,-2.717 2.718,-2.717 4.217,-2.717 5.435,-1.5 5.435,0 5.435,1.5 4.217,2.717 2.718,2.717 1.218,2.717 0,1.5 0,0"
             style="fill:#025773;fill-opacity:1;fill-rule:nonzero;stroke:none"
             id="path1164" /></g><g
           id="g1166"
           transform="translate(233.5996,-64.375)"><path
             d="m 0,0 h -9.069 l 17.07,27.278 -3.749,0.003 13.899,22.157 -8.957,0.01 10.898,17.371 -5.424,0.007 10.217,16.287 -6.113,0.007 7.267,11.583 -4.529,0.005 17.027,48.841 17.164,-48.658 -4.57,-0.088 7.302,-11.47 L 52.262,83.214 62.529,67.082 57.035,66.977 67.993,49.763 61.114,49.63 75.099,27.661 68.046,27.526 85.223,0.61 77.434,0.45 l 17.555,-27.434 -35.5,-0.725 h -76.877 z"
             style="fill:#008d87;fill-opacity:1;fill-rule:nonzero;stroke:none"
             id="path1168" /></g><g
           id="g1170"
           transform="translate(272.1855,79.0361)"><path
             d="m 0,0 v 0 l 17.115,-48.521 -4.57,-0.087 7.302,-11.47 -6.171,-0.119 10.267,-16.132 -5.494,-0.106 10.958,-17.213 -6.879,-0.133 13.985,-21.969 -7.053,-0.135 17.177,-26.916 -7.789,-0.16 17.555,-27.435 -27.529,28.257 z"
             style="fill:#1ac1b5;fill-opacity:1;fill-rule:nonzero;stroke:none"
             id="path1172" /></g><g
           id="g1174"
           transform="translate(216.2119,-92.084)"><path
             d="m 0,0 17.388,27.709 h -9.07 l 17.071,27.278 -3.749,0.003 13.899,22.157 -8.957,0.01 10.897,17.371 -5.423,0.007 10.216,16.287 -6.112,0.007 7.267,11.583 -4.53,0.005 17.028,48.841 0.049,-0.138 L 45.725,17.39 112.377,0.725 76.877,0 Z"
             style="fill:#025773;fill-opacity:1;fill-rule:nonzero;stroke:none"
             id="path1176" /></g><g
           id="g1178"
           transform="translate(274.4336,10.0713)"><path
             d="m 0,0 c 0,-1.5 1.217,-2.717 2.717,-2.717 1.5,0 2.717,1.217 2.717,2.717 0,1.5 -1.217,2.717 -2.717,2.717 C 1.217,2.717 0,1.5 0,0"
             style="fill:#025773;fill-opacity:1;fill-rule:nonzero;stroke:none"
             id="path1180" /></g></g></g></g></svg>
